<svg xmlns="http://www.w3.org/2000/svg" viewBox="0 0 277.8 67.44"><defs><style>.cls-1{fill:lime;}.cls-2{fill:#fff;}</style></defs><g id="Ebene_2" data-name="Ebene 2"><g id="Ebene_1-2" data-name="Ebene 1"><polygon points="48.06 0 48.06 24.8 23.33 0 0 0 0 67.42 27.33 67.42 27.33 42.56 52.11 67.42 90.35 67.44 90.38 67.42 104.81 52.98 119.27 67.44 277.8 67.42 277.8 0 119.25 0 104.79 14.46 90.33 0 48.06 0"/><path class="cls-1" d="M68.48,60.51H87.54L104.8,43.25l17.26,17.26H141l.06-.06L114.33,33.72,141.15,6.9H122.08L104.8,24.19,87.51,6.9H68.45L95.27,33.72,68.48,60.5"/><polygon class="cls-2" points="270.89 20.39 270.89 6.91 209.31 6.91 209.31 60.51 257.41 60.51 270.89 60.51 270.89 26.97 229.37 26.97 229.37 40.45 257.41 40.45 257.41 47.03 222.79 47.03 222.79 20.39 270.89 20.39"/><polygon class="cls-2" points="141.15 6.91 141.15 60.51 202.73 60.51 202.73 26.97 161.21 26.97 161.21 40.45 189.25 40.45 189.25 47.03 154.63 47.03 154.63 20.39 202.73 20.39 202.73 6.91 141.15 6.91"/><polygon class="cls-2" points="68.45 6.91 55 6.91 55 41.45 20.46 6.91 20.39 6.98 20.39 6.91 6.91 6.91 6.91 60.51 20.39 60.51 20.39 25.89 55 60.51 55 60.51 55 60.51 68.48 60.51 68.45 6.91"/></g></g></svg>